<svg width="60" height="60" viewBox="0 0 60 60" fill="none" xmlns="http://www.w3.org/2000/svg">
<g clip-path="url(#clip0_4502_2211)">
<g clip-path="url(#clip1_4502_2211)">
<rect width="60" height="60" fill="white"/>
<rect width="60" height="60" fill="url(#paint0_linear_4502_2211)"/>
<path d="M33.9526 12.3333H25.714C24.83 12.3333 23.9821 12.6844 23.357 13.3096L20.5858 16.0808C20.2107 16.4559 19.702 16.6666 19.1716 16.6666H15.4667C12.8531 16.6666 11.5463 16.6666 10.548 17.1752C9.66995 17.6226 8.95605 18.3365 8.50864 19.2146C8 20.2129 8 21.5197 8 24.1332V38.8666C8 41.4802 8 42.7869 8.50864 43.7852C8.95605 44.6633 9.66995 45.3772 10.548 45.8246C11.5463 46.3332 12.8531 46.3332 15.4667 46.3332H44.5333C47.1469 46.3332 48.4537 46.3332 49.452 45.8246C50.33 45.3772 51.044 44.6633 51.4914 43.7852C52 42.7869 52 41.4802 52 38.8666V24.1332C52 21.5197 52 20.2129 51.4914 19.2146C51.044 18.3365 50.33 17.6226 49.452 17.1752C48.4537 16.6666 47.1469 16.6666 44.5333 16.6666H40.4951C39.9647 16.6666 39.456 16.4559 39.0809 16.0808L36.3096 13.3096C35.6845 12.6844 34.8367 12.3333 33.9526 12.3333Z" fill="url(#paint1_linear_4502_2211)"/>
<circle cx="45.0002" cy="23.3335" r="2" fill="#FCCA00"/>
<g filter="url(#filter0_d_4502_2211)">
<path fill-rule="evenodd" clip-rule="evenodd" d="M30 41.3334C35.5228 41.3334 40 36.8562 40 31.3334C40 25.8105 35.5228 21.3334 30 21.3334C24.4772 21.3334 20 25.8105 20 31.3334C20 36.8562 24.4772 41.3334 30 41.3334ZM29.9999 39.3332C34.4182 39.3332 37.9999 35.7515 37.9999 31.3332C37.9999 26.915 34.4182 23.3332 29.9999 23.3332C25.5817 23.3332 21.9999 26.915 21.9999 31.3332C21.9999 35.7515 25.5817 39.3332 29.9999 39.3332Z" fill="url(#paint2_linear_4502_2211)"/>
</g>
</g>
</g>
<defs>
<filter id="filter0_d_4502_2211" x="18.6667" y="21.3334" width="22.6667" height="22.6667" filterUnits="userSpaceOnUse" color-interpolation-filters="sRGB">
<feFlood flood-opacity="0" result="BackgroundImageFix"/>
<feColorMatrix in="SourceAlpha" type="matrix" values="0 0 0 0 0 0 0 0 0 0 0 0 0 0 0 0 0 0 127 0" result="hardAlpha"/>
<feOffset dy="1.33333"/>
<feGaussianBlur stdDeviation="0.666667"/>
<feComposite in2="hardAlpha" operator="out"/>
<feColorMatrix type="matrix" values="0 0 0 0 0 0 0 0 0 0 0 0 0 0 0 0 0 0 0.15 0"/>
<feBlend mode="normal" in2="BackgroundImageFix" result="effect1_dropShadow_4502_2211"/>
<feBlend mode="normal" in="SourceGraphic" in2="effect1_dropShadow_4502_2211" result="shape"/>
</filter>
<linearGradient id="paint0_linear_4502_2211" x1="30" y1="0" x2="30" y2="60" gradientUnits="userSpaceOnUse">
<stop stop-color="#E5E4EB"/>
<stop offset="1" stop-color="#8F8E92"/>
</linearGradient>
<linearGradient id="paint1_linear_4502_2211" x1="30" y1="12.3333" x2="30" y2="46.3332" gradientUnits="userSpaceOnUse">
<stop stop-color="#2D2D2D"/>
<stop offset="1" stop-color="#2D2C2E"/>
</linearGradient>
<linearGradient id="paint2_linear_4502_2211" x1="30" y1="21.3334" x2="30" y2="41.3334" gradientUnits="userSpaceOnUse">
<stop stop-color="#C4C3C7"/>
<stop offset="1" stop-color="#AAA9B0"/>
</linearGradient>
<clipPath id="clip0_4502_2211">
<rect width="60" height="60" rx="13.28" fill="white"/>
</clipPath>
<clipPath id="clip1_4502_2211">
<rect width="60" height="60" fill="white"/>
</clipPath>
</defs>
</svg>
