<svg width="60" height="60" viewBox="0 0 60 60" fill="none" xmlns="http://www.w3.org/2000/svg">
<g clip-path="url(#clip0_4502_1233)">
<g clip-path="url(#clip1_4502_1233)">
<rect width="60" height="60" fill="white"/>
<rect width="60" height="60" fill="url(#paint0_linear_4502_1233)"/>
<path fill-rule="evenodd" clip-rule="evenodd" d="M22.93 13.0047C22.0004 13.1961 21.3333 14.0145 21.3333 14.9636V23.0001C21.3333 23.0001 21.3333 23.0001 21.3334 23.0001C21.3334 23.0001 21.3334 23.0001 21.3334 23.0001V37.0001C21.3334 37.0462 21.3337 37.0941 21.3341 37.1435C21.3416 38.1656 21.354 39.8411 18.3334 40.0001C15.1693 40.1666 12.0051 42.3299 12 44.9937C12 44.9974 12.0027 45.0006 12.0064 45.0012C12.0102 45.0018 12.013 45.0053 12.0127 45.0092C12.0043 45.1163 12 45.2244 12 45.3334C12 47.9107 14.3878 50.0001 17.3333 50.0001C18.2368 50.0001 19.0878 49.8035 19.8335 49.4566C21.7792 48.8274 23.6667 47.2051 23.6667 43.1668V23.3348C23.6667 22.8602 24.0002 22.451 24.465 22.3553L40.465 19.0612C41.0854 18.9335 41.6667 19.4073 41.6667 20.0407V32.8334C41.6667 32.8793 41.667 32.9269 41.6674 32.9761L41.6674 32.9768C41.6749 33.9989 41.6873 35.6745 38.6667 35.8334C35.5026 36 32.3385 38.1633 32.3333 40.827C32.3333 40.8307 32.336 40.8339 32.3397 40.8345C32.3436 40.8352 32.3463 40.8387 32.346 40.8426C32.3376 40.9497 32.3334 41.0578 32.3334 41.1668C32.3334 43.7441 34.7212 45.8334 37.6667 45.8334C38.5703 45.8334 39.4214 45.6368 40.1673 45.2898C42.1128 44.6605 44 43.0382 44 39.0001L44 18.3334V10.3026C44 9.45809 43.2249 8.82633 42.3978 8.99662L22.93 13.0047Z" fill="white"/>
</g>
</g>
<defs>
<linearGradient id="paint0_linear_4502_1233" x1="30" y1="0" x2="30" y2="60" gradientUnits="userSpaceOnUse">
<stop stop-color="#FB5976"/>
<stop offset="1" stop-color="#FA243B"/>
</linearGradient>
<clipPath id="clip0_4502_1233">
<rect width="60" height="60" rx="13.28" fill="white"/>
</clipPath>
<clipPath id="clip1_4502_1233">
<rect width="60" height="60" fill="white"/>
</clipPath>
</defs>
</svg>
