<svg width="60" height="60" viewBox="0 0 60 60" fill="none" xmlns="http://www.w3.org/2000/svg">
<g clip-path="url(#clip0_4502_1118)">
<rect width="60" height="60" rx="13.2785" fill="white"/>
<rect width="60" height="60" rx="13.2783" fill="white"/>
<rect opacity="0.5" y="15" width="60" height="3.33333" fill="url(#paint0_linear_4502_1118)"/>
<rect width="60" height="15" fill="url(#paint1_linear_4502_1118)"/>
<path d="M0.416667 18.8333C0.262451 18.8333 0.119141 18.7867 0 18.707V17.4595C0.119141 17.3798 0.262451 17.3333 0.416667 17.3333C0.830892 17.3333 1.16667 17.669 1.16667 18.0833C1.16667 18.4975 0.830892 18.8333 0.416667 18.8333Z" fill="#C7C6CA"/>
<path d="M3.23999 18.8333C3.65422 18.8333 3.98999 18.4975 3.98999 18.0833C3.98999 17.669 3.65422 17.3333 3.23999 17.3333C2.82577 17.3333 2.48999 17.669 2.48999 18.0833C2.48999 18.4975 2.82577 18.8333 3.23999 18.8333Z" fill="#C7C6CA"/>
<path d="M6.81331 18.0833C6.81331 18.4975 6.47754 18.8333 6.06331 18.8333C5.64909 18.8333 5.31331 18.4975 5.31331 18.0833C5.31331 17.669 5.64909 17.3333 6.06331 17.3333C6.47754 17.3333 6.81331 17.669 6.81331 18.0833Z" fill="#C7C6CA"/>
<path d="M8.88664 18.8333C9.30086 18.8333 9.63664 18.4975 9.63664 18.0833C9.63664 17.669 9.30086 17.3333 8.88664 17.3333C8.47241 17.3333 8.13664 17.669 8.13664 18.0833C8.13664 18.4975 8.47241 18.8333 8.88664 18.8333Z" fill="#C7C6CA"/>
<path d="M12.46 18.0833C12.46 18.4975 12.1242 18.8333 11.71 18.8333C11.2957 18.8333 10.96 18.4975 10.96 18.0833C10.96 17.669 11.2957 17.3333 11.71 17.3333C12.1242 17.3333 12.46 17.669 12.46 18.0833Z" fill="#C7C6CA"/>
<path d="M14.5334 18.8333C14.9476 18.8333 15.2834 18.4975 15.2834 18.0833C15.2834 17.669 14.9476 17.3333 14.5334 17.3333C14.1191 17.3333 13.7834 17.669 13.7834 18.0833C13.7834 18.4975 14.1191 18.8333 14.5334 18.8333Z" fill="#C7C6CA"/>
<path d="M18.1068 18.0833C18.1068 18.4975 17.771 18.8333 17.3568 18.8333C16.9425 18.8333 16.6068 18.4975 16.6068 18.0833C16.6068 17.669 16.9425 17.3333 17.3568 17.3333C17.771 17.3333 18.1068 17.669 18.1068 18.0833Z" fill="#C7C6CA"/>
<path d="M20.1802 18.8333C20.5944 18.8333 20.9302 18.4975 20.9302 18.0833C20.9302 17.669 20.5944 17.3333 20.1802 17.3333C19.766 17.3333 19.4302 17.669 19.4302 18.0833C19.4302 18.4975 19.766 18.8333 20.1802 18.8333Z" fill="#C7C6CA"/>
<path d="M23.7536 18.0833C23.7536 18.4975 23.4178 18.8333 23.0036 18.8333C22.5894 18.8333 22.2536 18.4975 22.2536 18.0833C22.2536 17.669 22.5894 17.3333 23.0036 17.3333C23.4178 17.3333 23.7536 17.669 23.7536 18.0833Z" fill="#C7C6CA"/>
<path d="M25.827 18.8333C26.2412 18.8333 26.577 18.4975 26.577 18.0833C26.577 17.669 26.2412 17.3333 25.827 17.3333C25.4128 17.3333 25.077 17.669 25.077 18.0833C25.077 18.4975 25.4128 18.8333 25.827 18.8333Z" fill="#C7C6CA"/>
<path d="M29.4004 18.0833C29.4004 18.4975 29.0646 18.8333 28.6504 18.8333C28.2362 18.8333 27.9004 18.4975 27.9004 18.0833C27.9004 17.669 28.2362 17.3333 28.6504 17.3333C29.0646 17.3333 29.4004 17.669 29.4004 18.0833Z" fill="#C7C6CA"/>
<path d="M31.4738 18.8333C31.888 18.8333 32.2238 18.4975 32.2238 18.0833C32.2238 17.669 31.888 17.3333 31.4738 17.3333C31.0596 17.3333 30.7238 17.669 30.7238 18.0833C30.7238 18.4975 31.0596 18.8333 31.4738 18.8333Z" fill="#C7C6CA"/>
<path d="M35.0472 18.0833C35.0472 18.4975 34.7114 18.8333 34.2972 18.8333C33.883 18.8333 33.5472 18.4975 33.5472 18.0833C33.5472 17.669 33.883 17.3333 34.2972 17.3333C34.7114 17.3333 35.0472 17.669 35.0472 18.0833Z" fill="#C7C6CA"/>
<path d="M37.1206 18.8333C37.5348 18.8333 37.8706 18.4975 37.8706 18.0833C37.8706 17.669 37.5348 17.3333 37.1206 17.3333C36.7064 17.3333 36.3706 17.669 36.3706 18.0833C36.3706 18.4975 36.7064 18.8333 37.1206 18.8333Z" fill="#C7C6CA"/>
<path d="M40.694 18.0833C40.694 18.4975 40.3582 18.8333 39.944 18.8333C39.5298 18.8333 39.194 18.4975 39.194 18.0833C39.194 17.669 39.5298 17.3333 39.944 17.3333C40.3582 17.3333 40.694 17.669 40.694 18.0833Z" fill="#C7C6CA"/>
<path d="M42.7674 18.8333C43.1816 18.8333 43.5174 18.4975 43.5174 18.0833C43.5174 17.669 43.1816 17.3333 42.7674 17.3333C42.3532 17.3333 42.0174 17.669 42.0174 18.0833C42.0174 18.4975 42.3532 18.8333 42.7674 18.8333Z" fill="#C7C6CA"/>
<path d="M46.3408 18.0833C46.3408 18.4975 46.005 18.8333 45.5908 18.8333C45.1766 18.8333 44.8408 18.4975 44.8408 18.0833C44.8408 17.669 45.1766 17.3333 45.5908 17.3333C46.005 17.3333 46.3408 17.669 46.3408 18.0833Z" fill="#C7C6CA"/>
<path d="M48.4142 18.8333C48.8285 18.8333 49.1642 18.4975 49.1642 18.0833C49.1642 17.669 48.8285 17.3333 48.4142 17.3333C48 17.3333 47.6642 17.669 47.6642 18.0833C47.6642 18.4975 48 18.8333 48.4142 18.8333Z" fill="#C7C6CA"/>
<path d="M51.9876 18.0833C51.9876 18.4975 51.6519 18.8333 51.2376 18.8333C50.8234 18.8333 50.4876 18.4975 50.4876 18.0833C50.4876 17.669 50.8234 17.3333 51.2376 17.3333C51.6519 17.3333 51.9876 17.669 51.9876 18.0833Z" fill="#C7C6CA"/>
<path d="M54.061 18.8333C54.4753 18.8333 54.811 18.4975 54.811 18.0833C54.811 17.669 54.4753 17.3333 54.061 17.3333C53.6468 17.3333 53.311 17.669 53.311 18.0833C53.311 18.4975 53.6468 18.8333 54.061 18.8333Z" fill="#C7C6CA"/>
<path d="M57.6344 18.0833C57.6344 18.4975 57.2987 18.8333 56.8844 18.8333C56.4702 18.8333 56.1344 18.4975 56.1344 18.0833C56.1344 17.669 56.4702 17.3333 56.8844 17.3333C57.2987 17.3333 57.6344 17.669 57.6344 18.0833Z" fill="#C7C6CA"/>
<path d="M60 17.3923V18.7742C59.9102 18.8122 59.8115 18.8333 59.7078 18.8333C59.2936 18.8333 58.9578 18.4975 58.9578 18.0833C58.9578 17.669 59.2936 17.3333 59.7078 17.3333C59.8115 17.3333 59.9102 17.3543 60 17.3923Z" fill="#C7C6CA"/>
<path fill-rule="evenodd" clip-rule="evenodd" d="M60 29.6667H0V30.6667H60V29.6667ZM60 44.6668H0V45.6668H60V44.6668Z" fill="#C8C7CB"/>
</g>
<defs>
<linearGradient id="paint0_linear_4502_1118" x1="30" y1="15" x2="30" y2="18.3333" gradientUnits="userSpaceOnUse">
<stop offset="0.0416667" stop-color="#9C9A9B"/>
<stop offset="0.447917" stop-color="#D7D7D7"/>
<stop offset="0.875" stop-color="white"/>
</linearGradient>
<linearGradient id="paint1_linear_4502_1118" x1="30" y1="0" x2="30" y2="15" gradientUnits="userSpaceOnUse">
<stop stop-color="#FFDD5F"/>
<stop offset="1" stop-color="#FDCB00"/>
</linearGradient>
<clipPath id="clip0_4502_1118">
<rect width="60" height="60" rx="13.2785" fill="white"/>
</clipPath>
</defs>
</svg>
